<svg width="38" height="22" viewBox="0 0 38 22" fill="none" xmlns="http://www.w3.org/2000/svg">
<g clip-path="url(#clip0_75_104)">
<path d="M1 11C1 5.47715 5.47715 1 11 1H27C32.5228 1 37 5.47715 37 11C37 16.5228 32.5228 21 27 21H11C5.47715 21 1 16.5228 1 11Z" fill="#E3E2E3"/>
<g filter="url(#filter0_dd_75_104)">
<path d="M3 11C3 6.58172 6.58172 3 11 3C15.4183 3 19 6.58172 19 11C19 15.4183 15.4183 19 11 19C6.58172 19 3 15.4183 3 11Z" fill="#B8B4C8"/>
<path d="M15 7L7 15M7 7L15 15" stroke="#E7EAEB" stroke-width="2" stroke-linecap="round" stroke-linejoin="round"/>
<path d="M11 18C7.13401 18 4 14.866 4 11H2C2 15.9706 6.02944 20 11 20V18ZM18 11C18 14.866 14.866 18 11 18V20C15.9706 20 20 15.9706 20 11H18ZM11 4C14.866 4 18 7.13401 18 11H20C20 6.02944 15.9706 2 11 2V4ZM11 2C6.02944 2 2 6.02944 2 11H4C4 7.13401 7.13401 4 11 4V2Z" fill="#B8B4C8"/>
</g>
</g>
<path d="M11 1.5H27V0.5H11V1.5ZM27 20.5H11V21.5H27V20.5ZM11 20.5C5.7533 20.5 1.5 16.2467 1.5 11H0.5C0.5 16.799 5.20101 21.5 11 21.5V20.5ZM36.5 11C36.5 16.2467 32.2467 20.5 27 20.5V21.5C32.799 21.5 37.5 16.799 37.5 11H36.5ZM27 1.5C32.2467 1.5 36.5 5.75329 36.5 11H37.5C37.5 5.20101 32.799 0.5 27 0.5V1.5ZM11 0.5C5.20101 0.5 0.5 5.20101 0.5 11H1.5C1.5 5.75329 5.7533 1.5 11 1.5V0.5Z" fill="#827B98"/>
<defs>
<filter id="filter0_dd_75_104" x="0" y="1" width="22" height="22" filterUnits="userSpaceOnUse" color-interpolation-filters="sRGB">
<feFlood flood-opacity="0" result="BackgroundImageFix"/>
<feColorMatrix in="SourceAlpha" type="matrix" values="0 0 0 0 0 0 0 0 0 0 0 0 0 0 0 0 0 0 127 0" result="hardAlpha"/>
<feOffset dy="1"/>
<feGaussianBlur stdDeviation="1"/>
<feColorMatrix type="matrix" values="0 0 0 0 0.0627451 0 0 0 0 0.0941176 0 0 0 0 0.156863 0 0 0 0.06 0"/>
<feBlend mode="normal" in2="BackgroundImageFix" result="effect1_dropShadow_75_104"/>
<feColorMatrix in="SourceAlpha" type="matrix" values="0 0 0 0 0 0 0 0 0 0 0 0 0 0 0 0 0 0 127 0" result="hardAlpha"/>
<feOffset dy="1"/>
<feGaussianBlur stdDeviation="1.5"/>
<feColorMatrix type="matrix" values="0 0 0 0 0.0627451 0 0 0 0 0.0941176 0 0 0 0 0.156863 0 0 0 0.1 0"/>
<feBlend mode="normal" in2="effect1_dropShadow_75_104" result="effect2_dropShadow_75_104"/>
<feBlend mode="normal" in="SourceGraphic" in2="effect2_dropShadow_75_104" result="shape"/>
</filter>
<clipPath id="clip0_75_104">
<path d="M1 11C1 5.47715 5.47715 1 11 1H27C32.5228 1 37 5.47715 37 11C37 16.5228 32.5228 21 27 21H11C5.47715 21 1 16.5228 1 11Z" fill="white"/>
</clipPath>
</defs>
</svg>
